<svg version="1.1" id="Layer_1" xmlns="http://www.w3.org/2000/svg" xmlns:xlink="http://www.w3.org/1999/xlink" x="0px" y="0px"
	 width="100%" viewBox="0 0 512 512" enable-background="new 0 0 512 512" xml:space="preserve">
<path fill="#ffffff" opacity="1.000000" stroke="none" 
	d="
M1.000000,322.000000 
	C1.000000,215.041321 1.000000,108.082626 1.000000,1.061972 
	C171.559433,1.061972 342.118896,1.061972 513.000000,1.061972 
	C513.000000,96.022400 513.000000,191.045166 512.662231,286.472656 
	C510.252319,284.123779 508.629028,280.807709 506.020630,278.726074 
	C499.234711,273.310516 492.016296,268.436829 484.547272,263.041260 
	C484.787079,262.631683 485.695618,261.082581 486.601624,259.532074 
	C491.114624,251.808807 494.579987,243.746490 493.943390,234.544662 
	C493.518494,228.402817 491.590332,222.840637 486.628906,218.761246 
	C477.773712,211.480331 467.929596,212.735870 458.426422,216.484955 
	C452.551392,218.802719 447.362335,222.859344 442.867859,225.537842 
	C437.354584,218.966583 432.524780,211.763367 426.296417,206.097626 
	C414.534546,195.398239 398.531982,199.082901 391.335724,213.328918 
	C387.315460,221.287643 387.257050,229.876038 388.356720,238.255035 
	C389.064148,243.645355 386.994232,243.635223 382.910065,244.156799 
	C375.578949,245.093033 367.831238,245.757446 361.212646,248.690521 
	C345.000336,255.875183 341.594971,274.864227 357.284729,287.943329 
	C362.887726,292.614044 369.836121,295.670776 375.661163,299.159271 
	C372.894897,306.636597 369.215942,314.012085 367.500427,321.819000 
	C364.913788,333.589905 369.671631,347.692993 385.819946,349.527344 
	C393.533081,350.403534 400.207855,348.015564 406.804840,344.717194 
	C409.251068,343.494110 411.637817,342.151978 414.669067,340.534790 
	C414.669067,347.811462 414.669067,354.184540 414.669067,361.180725 
	C412.405182,360.110931 410.651581,359.275482 408.892303,358.452118 
	C401.674713,355.074188 394.131683,353.405548 386.128387,354.030640 
	C380.195587,354.494049 376.732941,357.572235 377.107574,362.521698 
	C378.510620,381.057678 391.788910,396.324310 410.841431,398.901062 
	C414.143860,399.347717 415.082153,400.696655 415.017303,403.676300 
	C414.919373,408.173279 415.015656,412.674164 414.999756,417.173309 
	C414.975739,423.971649 414.964874,423.997406 407.945831,423.998749 
	C364.286774,424.007080 320.627686,424.007355 276.968628,423.998352 
	C270.032684,423.996918 270.004028,423.969025 270.001984,417.087372 
	C269.991394,381.593567 269.994293,346.099731 269.998566,310.605927 
	C269.999420,303.390228 270.014435,303.405792 277.077393,302.043213 
	C288.168915,299.903473 297.761902,294.927307 305.672607,286.815643 
	C316.137146,276.085266 321.824738,262.827545 324.550812,248.445206 
	C325.485535,243.513855 327.922119,242.631393 331.642151,242.135559 
	C350.783447,239.584320 362.966553,222.832977 363.967102,205.251282 
	C364.668671,192.923935 360.774658,182.352859 351.476593,173.950668 
	C349.381744,172.057648 347.426575,170.238510 348.629761,166.696411 
	C353.495300,152.372223 351.803070,138.969955 342.848602,126.486168 
	C341.165558,124.139755 340.098755,120.760612 340.128448,117.872246 
	C340.321960,99.060394 322.078979,85.526192 303.902100,87.111450 
	C301.424042,87.327568 298.517670,87.126831 296.380951,86.018066 
	C284.333618,79.766548 272.143585,78.767883 259.365143,83.575020 
	C257.712769,84.196625 254.968781,83.579887 253.413239,82.527512 
	C242.696808,75.277451 230.931519,74.284241 218.958405,77.385323 
	C213.171143,78.884247 207.880692,79.721466 201.781082,79.265541 
	C183.626450,77.908577 170.518860,88.552887 166.257172,106.686546 
	C165.854294,108.400841 165.534775,110.591965 164.354797,111.594757 
	C153.978485,120.412941 149.571030,131.599060 149.831573,145.067886 
	C149.873688,147.245453 148.081604,149.780045 146.502274,151.597778 
	C143.579437,154.961868 139.690353,157.551849 137.071869,161.104172 
	C121.794876,181.829407 131.214783,217.985641 161.873032,223.644669 
	C165.417847,224.298981 166.728088,225.325974 167.206345,229.120239 
	C168.387833,238.493393 169.792923,247.911819 172.126114,257.052185 
	C178.408890,281.665192 192.782791,298.485962 218.987427,302.679779 
	C223.176025,303.350159 224.069153,305.009735 224.059158,308.787750 
	C223.962601,345.281158 223.946808,381.775055 224.073105,418.268280 
	C224.088013,422.576447 222.764297,424.165344 218.348633,424.078918 
	C206.521927,423.847443 194.687653,424.003540 182.856384,424.003418 
	C158.194016,424.003204 133.531631,423.987976 108.869301,424.017059 
	C105.661690,424.020844 102.932518,424.041199 102.961319,419.486542 
	C103.087784,399.490906 103.046150,379.493927 102.984558,359.497681 
	C102.974907,356.363098 104.142281,355.062775 107.372192,354.959381 
	C117.685104,354.629272 127.467430,352.030731 136.364105,346.779144 
	C155.675522,335.379974 166.345306,318.681274 167.014481,295.956146 
	C167.137650,291.773773 165.312805,289.056427 161.342133,288.481598 
	C156.108093,287.723907 150.749954,286.977325 145.508255,287.288452 
	C133.261276,288.015289 122.267281,292.646606 112.361046,299.772766 
	C109.375786,301.920258 106.747490,304.563965 103.558746,307.323914 
	C103.278870,305.914978 103.046219,305.287231 103.045227,304.659119 
	C103.021393,289.661957 102.894135,274.662506 103.162346,259.670166 
	C103.200935,257.513458 104.759056,255.024368 106.303223,253.309906 
	C121.453064,236.489380 120.494972,210.268143 104.419876,193.991135 
	C100.518402,190.040649 95.670296,190.152573 91.590462,193.917770 
	C75.558769,208.713089 71.934723,235.531891 86.863251,253.559280 
	C88.469330,255.498703 88.620659,258.642853 89.446808,261.228149 
	C85.992889,259.719238 83.721718,257.900482 81.514862,256.006805 
	C67.314835,243.821945 50.563187,240.575760 32.510185,242.181519 
	C28.667727,242.523300 25.384033,244.213120 25.067743,248.798203 
	C23.842175,266.564667 31.301325,281.221527 43.552967,292.831635 
	C54.571533,303.273254 68.304390,309.549622 84.185707,308.972076 
	C87.972610,308.834351 89.078934,310.537506 89.039200,314.068268 
	C88.915459,325.064911 89.009773,336.063934 88.987991,347.061951 
	C88.985222,348.459534 88.795143,349.856689 88.675026,351.481567 
	C64.728622,324.899170 36.686020,312.032440 1.000000,322.000000 
z"/>
<path fill="#ffffff" opacity="1.000000" stroke="none" 
	d="
M513.000000,304.000000 
	C513.000000,373.632446 513.000000,443.264893 513.000000,512.948669 
	C342.451385,512.948669 171.902725,512.948669 1.000000,512.948669 
	C1.000000,456.646271 1.000000,400.291779 1.343840,343.566986 
	C2.509099,345.142273 3.469696,347.041962 4.129663,349.040894 
	C8.905989,363.507446 16.619326,375.903534 28.312611,385.962189 
	C42.771915,398.400146 59.520290,404.612854 78.282684,405.935120 
	C89.097672,406.697296 88.849785,406.582031 89.113472,417.650665 
	C89.236855,422.830048 87.390594,424.215240 82.465965,424.098145 
	C70.478821,423.813110 58.472485,423.805939 46.492489,424.222229 
	C44.258335,424.299866 41.043392,426.429382 40.216843,428.416901 
	C39.351013,430.499023 39.935001,434.542847 41.489426,435.924194 
	C43.376770,437.601440 46.942135,437.918152 49.782124,437.920044 
	C181.218704,438.007324 312.655334,437.995941 444.091949,437.995178 
	C445.091431,437.995178 446.093353,437.936615 447.089966,437.987488 
	C451.052887,438.189850 453.986877,435.955627 454.333313,432.545746 
	C454.573547,430.181366 452.269531,427.521454 450.970459,425.063232 
	C450.638397,424.434937 449.806152,424.070984 449.093140,423.496490 
	C449.752686,422.792908 450.132568,422.213226 450.661133,421.849670 
	C460.714203,414.934448 464.990753,404.784607 466.765686,393.217865 
	C467.377380,389.231628 465.943420,385.969116 462.169769,384.851013 
	C458.619843,383.799225 454.556671,382.963776 451.034760,383.650696 
	C443.819153,385.057922 436.814880,387.548889 429.566528,389.638916 
	C429.566528,378.090485 429.566528,366.198059 429.566528,353.948151 
	C432.754974,356.041199 435.272522,357.964813 438.024780,359.454987 
	C452.193481,367.126648 466.368195,361.806458 470.778412,346.315063 
	C472.679382,339.637695 472.564301,332.222504 472.381317,325.168030 
	C472.237396,319.618317 472.003510,319.103851 477.642242,319.003784 
	C478.807983,318.983093 479.974640,319.013123 481.140472,318.994415 
	C493.100677,318.802460 503.862946,316.023071 511.006805,305.289795 
	C511.409088,304.685425 512.323792,304.422058 513.000000,304.000000 
z"/>
<path fill="#2F2F30" opacity="1.000000" stroke="none" 
	d="
M513.000000,303.532379 
	C512.323792,304.422058 511.409088,304.685425 511.006805,305.289795 
	C503.862946,316.023071 493.100677,318.802460 481.140472,318.994415 
	C479.974640,319.013123 478.807983,318.983093 477.642242,319.003784 
	C472.003510,319.103851 472.237396,319.618317 472.381317,325.168030 
	C472.564301,332.222504 472.679382,339.637695 470.778412,346.315063 
	C466.368195,361.806458 452.193481,367.126648 438.024780,359.454987 
	C435.272522,357.964813 432.754974,356.041199 429.566528,353.948151 
	C429.566528,366.198059 429.566528,378.090485 429.566528,389.638916 
	C436.814880,387.548889 443.819153,385.057922 451.034760,383.650696 
	C454.556671,382.963776 458.619843,383.799225 462.169769,384.851013 
	C465.943420,385.969116 467.377380,389.231628 466.765686,393.217865 
	C464.990753,404.784607 460.714203,414.934448 450.661133,421.849670 
	C450.132568,422.213226 449.752686,422.792908 449.093140,423.496490 
	C449.806152,424.070984 450.638397,424.434937 450.970459,425.063232 
	C452.269531,427.521454 454.573547,430.181366 454.333313,432.545746 
	C453.986877,435.955627 451.052887,438.189850 447.089966,437.987488 
	C446.093353,437.936615 445.091431,437.995178 444.091949,437.995178 
	C312.655334,437.995941 181.218704,438.007324 49.782124,437.920044 
	C46.942135,437.918152 43.376770,437.601440 41.489426,435.924194 
	C39.935001,434.542847 39.351013,430.499023 40.216843,428.416901 
	C41.043392,426.429382 44.258335,424.299866 46.492489,424.222229 
	C58.472485,423.805939 70.478821,423.813110 82.465965,424.098145 
	C87.390594,424.215240 89.236855,422.830048 89.113472,417.650665 
	C88.849785,406.582031 89.097672,406.697296 78.282684,405.935120 
	C59.520290,404.612854 42.771915,398.400146 28.312611,385.962189 
	C16.619326,375.903534 8.905989,363.507446 4.129663,349.040894 
	C3.469696,347.041962 2.509099,345.142273 1.343840,343.098328 
	C1.000000,336.312347 1.000000,329.624725 1.000000,322.468536 
	C36.686020,312.032440 64.728622,324.899170 88.675026,351.481567 
	C88.795143,349.856689 88.985222,348.459534 88.987991,347.061951 
	C89.009773,336.063934 88.915459,325.064911 89.039200,314.068268 
	C89.078934,310.537506 87.972610,308.834351 84.185707,308.972076 
	C68.304390,309.549622 54.571533,303.273254 43.552967,292.831635 
	C31.301325,281.221527 23.842175,266.564667 25.067743,248.798203 
	C25.384033,244.213120 28.667727,242.523300 32.510185,242.181519 
	C50.563187,240.575760 67.314835,243.821945 81.514862,256.006805 
	C83.721718,257.900482 85.992889,259.719238 89.446808,261.228149 
	C88.620659,258.642853 88.469330,255.498703 86.863251,253.559280 
	C71.934723,235.531891 75.558769,208.713089 91.590462,193.917770 
	C95.670296,190.152573 100.518402,190.040649 104.419876,193.991135 
	C120.494972,210.268143 121.453064,236.489380 106.303223,253.309906 
	C104.759056,255.024368 103.200935,257.513458 103.162346,259.670166 
	C102.894135,274.662506 103.021393,289.661957 103.045227,304.659119 
	C103.046219,305.287231 103.278870,305.914978 103.558746,307.323914 
	C106.747490,304.563965 109.375786,301.920258 112.361046,299.772766 
	C122.267281,292.646606 133.261276,288.015289 145.508255,287.288452 
	C150.749954,286.977325 156.108093,287.723907 161.342133,288.481598 
	C165.312805,289.056427 167.137650,291.773773 167.014481,295.956146 
	C166.345306,318.681274 155.675522,335.379974 136.364105,346.779144 
	C127.467430,352.030731 117.685104,354.629272 107.372192,354.959381 
	C104.142281,355.062775 102.974907,356.363098 102.984558,359.497681 
	C103.046150,379.493927 103.087784,399.490906 102.961319,419.486542 
	C102.932518,424.041199 105.661690,424.020844 108.869301,424.017059 
	C133.531631,423.987976 158.194016,424.003204 182.856384,424.003418 
	C194.687653,424.003540 206.521927,423.847443 218.348633,424.078918 
	C222.764297,424.165344 224.088013,422.576447 224.073105,418.268280 
	C223.946808,381.775055 223.962601,345.281158 224.059158,308.787750 
	C224.069153,305.009735 223.176025,303.350159 218.987427,302.679779 
	C192.782791,298.485962 178.408890,281.665192 172.126114,257.052185 
	C169.792923,247.911819 168.387833,238.493393 167.206345,229.120239 
	C166.728088,225.325974 165.417847,224.298981 161.873032,223.644669 
	C131.214783,217.985641 121.794876,181.829407 137.071869,161.104172 
	C139.690353,157.551849 143.579437,154.961868 146.502274,151.597778 
	C148.081604,149.780045 149.873688,147.245453 149.831573,145.067886 
	C149.571030,131.599060 153.978485,120.412941 164.354797,111.594757 
	C165.534775,110.591965 165.854294,108.400841 166.257172,106.686546 
	C170.518860,88.552887 183.626450,77.908577 201.781082,79.265541 
	C207.880692,79.721466 213.171143,78.884247 218.958405,77.385323 
	C230.931519,74.284241 242.696808,75.277451 253.413239,82.527512 
	C254.968781,83.579887 257.712769,84.196625 259.365143,83.575020 
	C272.143585,78.767883 284.333618,79.766548 296.380951,86.018066 
	C298.517670,87.126831 301.424042,87.327568 303.902100,87.111450 
	C322.078979,85.526192 340.321960,99.060394 340.128448,117.872246 
	C340.098755,120.760612 341.165558,124.139755 342.848602,126.486168 
	C351.803070,138.969955 353.495300,152.372223 348.629761,166.696411 
	C347.426575,170.238510 349.381744,172.057648 351.476593,173.950668 
	C360.774658,182.352859 364.668671,192.923935 363.967102,205.251282 
	C362.966553,222.832977 350.783447,239.584320 331.642151,242.135559 
	C327.922119,242.631393 325.485535,243.513855 324.550812,248.445206 
	C321.824738,262.827545 316.137146,276.085266 305.672607,286.815643 
	C297.761902,294.927307 288.168915,299.903473 277.077393,302.043213 
	C270.014435,303.405792 269.999420,303.390228 269.998566,310.605927 
	C269.994293,346.099731 269.991394,381.593567 270.001984,417.087372 
	C270.004028,423.969025 270.032684,423.996918 276.968628,423.998352 
	C320.627686,424.007355 364.286774,424.007080 407.945831,423.998749 
	C414.964874,423.997406 414.975739,423.971649 414.999756,417.173309 
	C415.015656,412.674164 414.919373,408.173279 415.017303,403.676300 
	C415.082153,400.696655 414.143860,399.347717 410.841431,398.901062 
	C391.788910,396.324310 378.510620,381.057678 377.107574,362.521698 
	C376.732941,357.572235 380.195587,354.494049 386.128387,354.030640 
	C394.131683,353.405548 401.674713,355.074188 408.892303,358.452118 
	C410.651581,359.275482 412.405182,360.110931 414.669067,361.180725 
	C414.669067,354.184540 414.669067,347.811462 414.669067,340.534790 
	C411.637817,342.151978 409.251068,343.494110 406.804840,344.717194 
	C400.207855,348.015564 393.533081,350.403534 385.819946,349.527344 
	C369.671631,347.692993 364.913788,333.589905 367.500427,321.819000 
	C369.215942,314.012085 372.894897,306.636597 375.661163,299.159271 
	C369.836121,295.670776 362.887726,292.614044 357.284729,287.943329 
	C341.594971,274.864227 345.000336,255.875183 361.212646,248.690521 
	C367.831238,245.757446 375.578949,245.093033 382.910065,244.156799 
	C386.994232,243.635223 389.064148,243.645355 388.356720,238.255035 
	C387.257050,229.876038 387.315460,221.287643 391.335724,213.328918 
	C398.531982,199.082901 414.534546,195.398239 426.296417,206.097626 
	C432.524780,211.763367 437.354584,218.966583 442.867859,225.537842 
	C447.362335,222.859344 452.551392,218.802719 458.426422,216.484955 
	C467.929596,212.735870 477.773712,211.480331 486.628906,218.761246 
	C491.590332,222.840637 493.518494,228.402817 493.943390,234.544662 
	C494.579987,243.746490 491.114624,251.808807 486.601624,259.532074 
	C485.695618,261.082581 484.787079,262.631683 484.547272,263.041260 
	C492.016296,268.436829 499.234711,273.310516 506.020630,278.726074 
	C508.629028,280.807709 510.252319,284.123779 512.662231,286.938690 
	C513.000000,292.354919 513.000000,297.709869 513.000000,303.532379 
M280.924286,236.757050 
	C287.132904,234.694397 292.104919,231.061203 295.764832,225.554123 
	C299.452484,220.005371 302.589813,219.567413 308.161346,223.493835 
	C321.089111,232.604446 338.050537,229.596054 346.201721,216.746704 
	C354.411194,203.805511 349.791077,187.283310 335.808380,179.578690 
	C329.116150,175.891205 328.485138,173.338943 332.687347,166.954254 
	C339.776917,156.182571 338.830017,142.489304 329.747467,133.530029 
	C326.321564,130.150620 325.631195,126.691246 326.072601,122.337631 
	C327.544861,107.817276 315.859406,97.939392 302.084564,102.234398 
	C298.300903,103.414131 295.263184,102.965256 292.314606,100.629738 
	C282.435852,92.804993 272.071991,91.971603 261.328827,98.660973 
	C256.505493,101.664284 252.834671,101.195686 248.628799,96.993294 
	C240.389053,88.760376 227.465103,87.174095 217.784775,93.237144 
	C213.267242,96.066597 209.479095,96.128479 204.711014,94.433678 
	C192.254822,90.006165 180.220016,98.354836 180.195175,111.550850 
	C180.186172,116.327782 178.450531,119.066032 174.692184,121.744720 
	C165.870712,128.032043 162.650681,137.058105 164.264359,147.595505 
	C165.725510,157.136810 165.969116,157.099487 157.201370,161.613251 
	C147.087112,166.820206 141.841965,178.207077 144.387985,189.430237 
	C147.169922,201.693329 156.321884,209.823029 168.022415,210.039093 
	C171.808533,210.109024 175.610107,209.371277 179.403839,208.995193 
	C183.972153,208.542374 186.155624,210.353058 187.323730,215.091965 
	C188.519791,219.944275 190.392075,225.196671 193.573547,228.891983 
	C205.563431,242.818298 226.761734,240.110077 236.073425,223.976212 
	C237.803406,220.978745 239.256393,217.622879 243.682861,217.789795 
	C247.757797,217.943451 249.228119,220.901886 250.802353,223.899536 
	C256.694641,235.119522 266.975189,239.673752 280.924286,236.757050 
M255.996536,406.498352 
	C255.996353,355.034424 256.008942,303.570496 255.944550,252.106659 
	C255.942215,250.245377 255.808533,247.690582 254.658707,246.653732 
	C251.130249,243.472000 247.076935,240.872360 243.210938,238.034149 
	C238.946503,240.362656 237.493500,243.748383 237.510361,248.656265 
	C237.676834,297.121735 237.610352,345.587982 237.611221,394.054016 
	C237.611374,402.548035 237.718552,411.043823 237.571609,419.535248 
	C237.513016,422.921204 238.621994,424.444794 242.161835,424.187866 
	C245.143921,423.971466 248.169128,423.959412 251.148453,424.195343 
	C254.741089,424.479858 256.359894,423.371521 256.061401,419.483856 
	C255.756332,415.510132 255.995575,411.494659 255.996536,406.498352 
M71.467247,354.046265 
	C56.037247,338.255676 37.506618,330.965668 15.316539,333.087830 
	C18.925600,371.743805 58.338779,396.665283 88.335678,391.027893 
	C87.116829,376.947784 81.022873,365.107300 71.467247,354.046265 
M270.447723,286.608398 
	C272.266266,286.787262 274.225311,287.498688 275.881317,287.061676 
	C290.504791,283.202728 300.000824,273.545380 305.445465,259.784973 
	C307.384521,254.884323 308.753235,249.698578 309.744049,244.520828 
	C310.017273,243.093109 308.295624,240.862915 306.905701,239.696091 
	C306.077240,239.000610 303.523315,239.050446 302.750336,239.800781 
	C294.715454,247.600677 284.897278,251.064178 274.027496,251.946518 
	C271.000702,252.192215 269.965302,253.480255 269.997864,256.323517 
	C270.110443,266.147644 270.133972,275.972839 270.447723,286.608398 
M219.657288,251.284515 
	C206.341034,253.762207 195.125534,248.653564 183.978745,241.413712 
	C185.249191,248.453613 186.756912,255.216431 189.134018,261.658447 
	C194.204391,275.399261 203.871323,284.289124 218.345856,287.597046 
	C221.529373,288.324554 224.030273,288.141815 223.999802,283.842590 
	C223.931366,274.184845 224.100784,264.522583 223.818939,254.872513 
	C223.782059,253.609238 221.663330,252.406784 219.657288,251.284515 
M139.030334,327.541138 
	C146.166977,320.492096 150.952530,312.219788 152.554092,302.231323 
	C133.596649,296.083099 102.954971,320.596802 104.122185,340.953552 
	C117.380531,341.364197 128.769348,336.929108 139.030334,327.541138 
M48.092178,256.086304 
	C45.183792,256.086304 42.275402,256.086304 39.294704,256.086304 
	C43.154808,279.804016 67.161606,298.657837 88.179237,294.529755 
	C87.858604,292.813904 87.730537,291.024414 87.184090,289.373383 
	C81.022903,270.757935 67.929756,260.089264 48.092178,256.086304 
M425.055817,225.493530 
	C422.947266,222.936203 421.120392,220.063431 418.676758,217.881378 
	C411.660583,211.616302 405.145813,213.522110 402.788666,222.717270 
	C400.625000,231.157516 401.802765,239.564590 404.922577,247.643677 
	C405.327637,248.692566 406.629547,249.498245 407.670715,250.180588 
	C412.244202,253.177841 416.659790,256.545746 421.568878,258.849854 
	C424.285583,260.124969 427.955444,260.083466 430.999023,259.538025 
	C431.986572,259.361053 432.840637,255.718964 432.915283,253.631760 
	C433.269470,243.728760 430.346985,234.632401 425.055817,225.493530 
M387.699158,258.793365 
	C381.335754,259.207611 374.714661,258.657379 368.671997,260.271942 
	C360.494385,262.457001 358.739044,269.869568 365.131042,275.348389 
	C370.134766,279.637329 376.508453,282.408142 382.469299,285.472504 
	C386.517487,287.553558 390.526825,287.486481 394.352722,284.095886 
	C396.517395,282.177490 399.386047,280.548981 402.185303,279.952606 
	C408.652710,278.574738 410.184052,273.665741 411.871277,268.466858 
	C404.835693,263.113647 397.110992,260.024017 387.699158,258.793365 
M464.149811,280.730804 
	C458.186066,284.222473 449.455780,284.625763 449.433441,294.692780 
	C454.859314,300.002838 466.760803,304.699493 476.225983,305.004578 
	C482.550018,305.208405 488.896820,305.507935 494.620850,302.020325 
	C499.042328,299.326263 500.578400,295.193237 498.239807,291.033752 
	C494.012634,283.515228 486.449677,280.832275 478.928528,277.935669 
	C473.509033,275.848480 469.016479,276.726196 464.149811,280.730804 
M414.732117,304.177032 
	C416.983765,298.395813 412.783508,295.094788 410.067627,291.230225 
	C397.716431,295.660004 385.668915,307.832916 381.805145,319.817383 
	C381.104858,321.989471 380.645081,324.349121 380.654510,326.619781 
	C380.685303,334.025208 385.668793,338.078217 392.483185,335.184540 
	C398.745148,332.525421 404.425659,328.360352 410.075134,324.444336 
	C413.739014,321.904694 416.039520,318.594177 414.234863,313.404205 
	C413.378448,310.941254 414.338287,307.846771 414.732117,304.177032 
M460.987274,266.515381 
	C462.771149,265.021667 464.712585,263.678741 466.311493,262.007996 
	C473.052734,254.963974 479.005829,247.337875 479.927582,237.205307 
	C480.626862,229.518814 476.209259,225.876846 468.843475,228.006882 
	C464.930054,229.138565 461.037201,230.898178 457.638885,233.138550 
	C450.480347,237.857834 443.732208,243.065353 446.259491,253.437698 
	C446.673431,255.136597 446.496185,257.199036 445.938019,258.875702 
	C443.951385,264.843445 447.762268,268.255402 451.252960,272.348206 
	C454.450836,270.472260 457.438232,268.719788 460.987274,266.515381 
M456.823608,317.934296 
	C455.173737,316.076721 453.756470,313.912994 451.815704,312.438263 
	C449.334503,310.552826 445.952484,309.701080 443.808502,307.554932 
	C439.236969,302.978851 434.284515,302.281311 428.201477,304.759308 
	C426.425598,320.491333 431.211914,334.307373 442.660461,345.480499 
	C449.273773,351.934692 456.547394,349.811310 457.814606,340.773407 
	C458.819641,333.605408 457.356201,326.091278 456.823608,317.934296 
M92.132362,233.096207 
	C93.401527,236.287766 94.670685,239.479324 96.008652,242.843903 
	C104.884270,235.790329 105.184456,215.201385 97.417091,208.922455 
	C91.908447,215.899536 90.563316,223.745880 92.132362,233.096207 
M421.916565,281.542847 
	C422.590881,287.577454 425.446014,290.473969 430.497498,290.248199 
	C435.077423,290.043488 438.708344,286.567078 438.987335,282.119598 
	C439.266663,277.666321 435.578064,273.482758 430.962585,273.018036 
	C426.161682,272.534668 423.125916,275.127686 421.916565,281.542847 
M434.579742,406.127014 
	C433.010559,408.797211 431.441376,411.467438 429.505188,414.762177 
	C440.742249,413.412079 449.145996,406.491608 450.606384,397.945801 
	C444.159485,398.151947 439.354187,401.334259 434.579742,406.127014 
M401.810913,370.559601 
	C399.024994,369.648132 396.239075,368.736633 392.791534,367.608673 
	C395.914917,378.114410 405.282410,385.305603 413.650909,384.445587 
	C411.765778,378.358093 407.716309,374.150513 401.810913,370.559601 
z"/>
<path fill="#7DD63E" opacity="1.000000" stroke="none" 
	d="
M280.525787,236.846542 
	C266.975189,239.673752 256.694641,235.119522 250.802353,223.899536 
	C249.228119,220.901886 247.757797,217.943451 243.682861,217.789795 
	C239.256393,217.622879 237.803406,220.978745 236.073425,223.976212 
	C226.761734,240.110077 205.563431,242.818298 193.573547,228.891983 
	C190.392075,225.196671 188.519791,219.944275 187.323730,215.091965 
	C186.155624,210.353058 183.972153,208.542374 179.403839,208.995193 
	C175.610107,209.371277 171.808533,210.109024 168.022415,210.039093 
	C156.321884,209.823029 147.169922,201.693329 144.387985,189.430237 
	C141.841965,178.207077 147.087112,166.820206 157.201370,161.613251 
	C165.969116,157.099487 165.725510,157.136810 164.264359,147.595505 
	C162.650681,137.058105 165.870712,128.032043 174.692184,121.744720 
	C178.450531,119.066032 180.186172,116.327782 180.195175,111.550850 
	C180.220016,98.354836 192.254822,90.006165 204.711014,94.433678 
	C209.479095,96.128479 213.267242,96.066597 217.784775,93.237144 
	C227.465103,87.174095 240.389053,88.760376 248.628799,96.993294 
	C252.834671,101.195686 256.505493,101.664284 261.328827,98.660973 
	C272.071991,91.971603 282.435852,92.804993 292.314606,100.629738 
	C295.263184,102.965256 298.300903,103.414131 302.084564,102.234398 
	C315.859406,97.939392 327.544861,107.817276 326.072601,122.337631 
	C325.631195,126.691246 326.321564,130.150620 329.747467,133.530029 
	C338.830017,142.489304 339.776917,156.182571 332.687347,166.954254 
	C328.485138,173.338943 329.116150,175.891205 335.808380,179.578690 
	C349.791077,187.283310 354.411194,203.805511 346.201721,216.746704 
	C338.050537,229.596054 321.089111,232.604446 308.161346,223.493835 
	C302.589813,219.567413 299.452484,220.005371 295.764832,225.554123 
	C292.104919,231.061203 287.132904,234.694397 280.525787,236.846542 
z"/>
<path fill="#C06000" opacity="1.000000" stroke="none" 
	d="
M255.996536,406.997925 
	C255.995575,411.494659 255.756332,415.510132 256.061401,419.483856 
	C256.359894,423.371521 254.741089,424.479858 251.148453,424.195343 
	C248.169128,423.959412 245.143921,423.971466 242.161835,424.187866 
	C238.621994,424.444794 237.513016,422.921204 237.571609,419.535248 
	C237.718552,411.043823 237.611374,402.548035 237.611221,394.054016 
	C237.610352,345.587982 237.676834,297.121735 237.510361,248.656265 
	C237.493500,243.748383 238.946503,240.362656 243.210938,238.034149 
	C247.076935,240.872360 251.130249,243.472000 254.658707,246.653732 
	C255.808533,247.690582 255.942215,250.245377 255.944550,252.106659 
	C256.008942,303.570496 255.996353,355.034424 255.996536,406.997925 
z"/>
<path fill="#7CD53E" opacity="1.000000" stroke="none" 
	d="
M71.710464,354.303406 
	C81.022873,365.107300 87.116829,376.947784 88.335678,391.027893 
	C58.338779,396.665283 18.925600,371.743805 15.316539,333.087830 
	C37.506618,330.965668 56.037247,338.255676 71.710464,354.303406 
z"/>
<path fill="#ffffff" opacity="1.000000" stroke="none" 
	d="
M270.319580,286.203003 
	C270.133972,275.972839 270.110443,266.147644 269.997864,256.323517 
	C269.965302,253.480255 271.000702,252.192215 274.027496,251.946518 
	C284.897278,251.064178 294.715454,247.600677 302.750336,239.800781 
	C303.523315,239.050446 306.077240,239.000610 306.905701,239.696091 
	C308.295624,240.862915 310.017273,243.093109 309.744049,244.520828 
	C308.753235,249.698578 307.384521,254.884323 305.445465,259.784973 
	C300.000824,273.545380 290.504791,283.202728 275.881317,287.061676 
	C274.225311,287.498688 272.266266,286.787262 270.319580,286.203003 
z"/>
<path fill="#ffffff" opacity="1.000000" stroke="none" 
	d="
M220.083069,251.230347 
	C221.663330,252.406784 223.782059,253.609238 223.818939,254.872513 
	C224.100784,264.522583 223.931366,274.184845 223.999802,283.842590 
	C224.030273,288.141815 221.529373,288.324554 218.345856,287.597046 
	C203.871323,284.289124 194.204391,275.399261 189.134018,261.658447 
	C186.756912,255.216431 185.249191,248.453613 183.978745,241.413712 
	C195.125534,248.653564 206.341034,253.762207 220.083069,251.230347 
z"/>
<path fill="#7CD43E" opacity="1.000000" stroke="none" 
	d="
M138.777695,327.789154 
	C128.769348,336.929108 117.380531,341.364197 104.122185,340.953552 
	C102.954971,320.596802 133.596649,296.083099 152.554092,302.231323 
	C150.952530,312.219788 146.166977,320.492096 138.777695,327.789154 
z"/>
<path fill="#7CD43E" opacity="1.000000" stroke="none" 
	d="
M48.526398,256.151062 
	C67.929756,260.089264 81.022903,270.757935 87.184090,289.373383 
	C87.730537,291.024414 87.858604,292.813904 88.179237,294.529755 
	C67.161606,298.657837 43.154808,279.804016 39.294704,256.086304 
	C42.275402,256.086304 45.183792,256.086304 48.526398,256.151062 
z"/>
<path fill="#FDA621" opacity="1.000000" stroke="none" 
	d="
M425.261230,225.798615 
	C430.346985,234.632401 433.269470,243.728760 432.915283,253.631760 
	C432.840637,255.718964 431.986572,259.361053 430.999023,259.538025 
	C427.955444,260.083466 424.285583,260.124969 421.568878,258.849854 
	C416.659790,256.545746 412.244202,253.177841 407.670715,250.180588 
	C406.629547,249.498245 405.327637,248.692566 404.922577,247.643677 
	C401.802765,239.564590 400.625000,231.157516 402.788666,222.717270 
	C405.145813,213.522110 411.660583,211.616302 418.676758,217.881378 
	C421.120392,220.063431 422.947266,222.936203 425.261230,225.798615 
z"/>
<path fill="#FDA621" opacity="1.000000" stroke="none" 
	d="
M388.132965,258.855225 
	C397.110992,260.024017 404.835693,263.113647 411.871277,268.466858 
	C410.184052,273.665741 408.652710,278.574738 402.185303,279.952606 
	C399.386047,280.548981 396.517395,282.177490 394.352722,284.095886 
	C390.526825,287.486481 386.517487,287.553558 382.469299,285.472504 
	C376.508453,282.408142 370.134766,279.637329 365.131042,275.348389 
	C358.739044,269.869568 360.494385,262.457001 368.671997,260.271942 
	C374.714661,258.657379 381.335754,259.207611 388.132965,258.855225 
z"/>
<path fill="#FDA621" opacity="1.000000" stroke="none" 
	d="
M464.459808,280.528320 
	C469.016479,276.726196 473.509033,275.848480 478.928528,277.935669 
	C486.449677,280.832275 494.012634,283.515228 498.239807,291.033752 
	C500.578400,295.193237 499.042328,299.326263 494.620850,302.020325 
	C488.896820,305.507935 482.550018,305.208405 476.225983,305.004578 
	C466.760803,304.699493 454.859314,300.002838 449.433441,294.692780 
	C449.455780,284.625763 458.186066,284.222473 464.459808,280.528320 
z"/>
<path fill="#FDA621" opacity="1.000000" stroke="none" 
	d="
M414.603699,304.607727 
	C414.338287,307.846771 413.378448,310.941254 414.234863,313.404205 
	C416.039520,318.594177 413.739014,321.904694 410.075134,324.444336 
	C404.425659,328.360352 398.745148,332.525421 392.483185,335.184540 
	C385.668793,338.078217 380.685303,334.025208 380.654510,326.619781 
	C380.645081,324.349121 381.104858,321.989471 381.805145,319.817383 
	C385.668915,307.832916 397.716431,295.660004 410.067627,291.230225 
	C412.783508,295.094788 416.983765,298.395813 414.603699,304.607727 
z"/>
<path fill="#FCA521" opacity="1.000000" stroke="none" 
	d="
M460.706482,266.741333 
	C457.438232,268.719788 454.450836,270.472260 451.252960,272.348206 
	C447.762268,268.255402 443.951385,264.843445 445.938019,258.875702 
	C446.496185,257.199036 446.673431,255.136597 446.259491,253.437698 
	C443.732208,243.065353 450.480347,237.857834 457.638885,233.138550 
	C461.037201,230.898178 464.930054,229.138565 468.843475,228.006882 
	C476.209259,225.876846 480.626862,229.518814 479.927582,237.205307 
	C479.005829,247.337875 473.052734,254.963974 466.311493,262.007996 
	C464.712585,263.678741 462.771149,265.021667 460.706482,266.741333 
z"/>
<path fill="#FDA621" opacity="1.000000" stroke="none" 
	d="
M456.906189,318.332581 
	C457.356201,326.091278 458.819641,333.605408 457.814606,340.773407 
	C456.547394,349.811310 449.273773,351.934692 442.660461,345.480499 
	C431.211914,334.307373 426.425598,320.491333 428.201477,304.759308 
	C434.284515,302.281311 439.236969,302.978851 443.808502,307.554932 
	C445.952484,309.701080 449.334503,310.552826 451.815704,312.438263 
	C453.756470,313.912994 455.173737,316.076721 456.906189,318.332581 
z"/>
<path fill="#7BD23E" opacity="1.000000" stroke="none" 
	d="
M92.075508,232.686981 
	C90.563316,223.745880 91.908447,215.899536 97.417091,208.922455 
	C105.184456,215.201385 104.884270,235.790329 96.008652,242.843903 
	C94.670685,239.479324 93.401527,236.287766 92.075508,232.686981 
z"/>
<path fill="#FC3131" opacity="1.000000" stroke="none" 
	d="
M421.930206,281.132141 
	C423.125916,275.127686 426.161682,272.534668 430.962585,273.018036 
	C435.578064,273.482758 439.266663,277.666321 438.987335,282.119598 
	C438.708344,286.567078 435.077423,290.043488 430.497498,290.248199 
	C425.446014,290.473969 422.590881,287.577454 421.930206,281.132141 
z"/>
<path fill="#7BD23E" opacity="1.000000" stroke="none" 
	d="
M434.811707,405.851624 
	C439.354187,401.334259 444.159485,398.151947 450.606384,397.945801 
	C449.145996,406.491608 440.742249,413.412079 429.505188,414.762177 
	C431.441376,411.467438 433.010559,408.797211 434.811707,405.851624 
z"/>
<path fill="#7BD23E" opacity="1.000000" stroke="none" 
	d="
M402.130737,370.747681 
	C407.716309,374.150513 411.765778,378.358093 413.650909,384.445587 
	C405.282410,385.305603 395.914917,378.114410 392.791534,367.608673 
	C396.239075,368.736633 399.024994,369.648132 402.130737,370.747681 
z"/>
</svg>